<svg preserveAspectRatio="none" width="100%" height="100%" overflow="visible" style="display: block;" viewBox="0 0 60 60" fill="none" xmlns="http://www.w3.org/2000/svg">
<g id="Group 1171279572">
<circle id="Ellipse 325" cx="30" cy="30" r="30" fill="var(--fill-0, #DDDDDD)"/>
<g id="fluent:arrow-left-24-filled">
<path id="Vector" d="M28.2973 37.7175C28.4871 37.8988 28.7405 37.9982 29.003 37.9942C29.2654 37.9903 29.5158 37.8833 29.7001 37.6964C29.8843 37.5095 29.9877 37.2577 29.988 36.9952C29.9882 36.7327 29.8852 36.4807 29.7013 36.2935L24.3313 31.0015H38.0013C38.2665 31.0015 38.5208 30.8961 38.7084 30.7086C38.8959 30.5211 39.0013 30.2667 39.0013 30.0015C39.0013 29.7363 38.8959 29.4819 38.7084 29.2944C38.5208 29.1068 38.2665 29.0015 38.0013 29.0015H24.3383L29.7023 23.7165C29.8862 23.5293 29.9892 23.2772 29.989 23.0148C29.9887 22.7523 29.8853 22.5004 29.7011 22.3135C29.5168 22.1266 29.2664 22.0197 29.004 22.0157C28.7415 22.0118 28.4881 22.1112 28.2983 22.2925L21.3723 29.1145C21.2544 29.2308 21.1607 29.3693 21.0968 29.5221C21.0329 29.6749 21 29.8389 21 30.0045C21 30.1701 21.0329 30.3341 21.0968 30.4868C21.1607 30.6396 21.2544 30.7782 21.3723 30.8945L28.2973 37.7175Z" fill="var(--fill-0, #1A1A1A)"/>
</g>
</g>
</svg>
