<svg preserveAspectRatio="none" width="100%" height="100%" overflow="visible" style="display: block;" viewBox="0 0 60 60" fill="none" xmlns="http://www.w3.org/2000/svg">
<g id="Group 1171279573">
<circle id="Ellipse 326" cx="30" cy="30" r="30" fill="var(--fill-0, #DDDDDD)"/>
<g id="fluent:arrow-left-24-filled">
<path id="Vector" d="M31.7027 22.2825C31.5129 22.1012 31.2595 22.0018 30.997 22.0058C30.7346 22.0097 30.4842 22.1167 30.2999 22.3036C30.1157 22.4905 30.0123 22.7423 30.012 23.0048C30.0118 23.2673 30.1148 23.5193 30.2987 23.7065L35.6687 28.9985H21.9987C21.7335 28.9985 21.4792 29.1039 21.2916 29.2914C21.1041 29.4789 20.9987 29.7333 20.9987 29.9985C20.9987 30.2637 21.1041 30.5181 21.2916 30.7056C21.4792 30.8932 21.7335 30.9985 21.9987 30.9985H35.6617L30.2977 36.2835C30.1138 36.4707 30.0108 36.7228 30.011 36.9852C30.0113 37.2477 30.1147 37.4996 30.2989 37.6865C30.4832 37.8734 30.7336 37.9803 30.996 37.9843C31.2585 37.9882 31.5119 37.8888 31.7017 37.7075L38.6277 30.8855C38.7456 30.7692 38.8393 30.6307 38.9032 30.4779C38.9671 30.3251 39 30.1611 39 29.9955C39 29.8299 38.9671 29.6659 38.9032 29.5132C38.8393 29.3604 38.7456 29.2218 38.6277 29.1055L31.7027 22.2825Z" fill="var(--fill-0, #1A1A1A)"/>
</g>
</g>
</svg>
